<?xml version="1.0" encoding="UTF-8"?>
<svg width="163px" height="56px" viewBox="0 0 163 56" version="1.1" xmlns="http://www.w3.org/2000/svg" xmlns:xlink="http://www.w3.org/1999/xlink">
    <!-- Generator: Sketch 58 (84663) - https://sketch.com -->
    <title>CanadaLife_E_TM</title>
    <desc>Created with Sketch.</desc>
    <g id="Page-1" stroke="none" stroke-width="1" fill="none" fill-rule="evenodd">
        <g id="CanadaLife_E_TM" fill-rule="nonzero">
            <path d="M138.135926,25.4488889 C135.291852,25.4488889 133.544444,28.2825926 133.544444,31.1240741 C133.546111,31.4939598 133.582568,31.8628688 133.653333,32.2259259 C137.972593,31.3962963 140.08037,29.0940741 140.08037,27.2662963 C140.08037,26.1151852 139.354444,25.4488889 138.135926,25.4488889 Z" id="Path" fill="#BA0C2F"></path>
            <path d="M99.7240741,30.9996296 C99.9262439,28.5398621 100.31627,26.0991624 100.890741,23.6988889 C102.358148,17.3314815 104.841852,12.4807407 108.347037,12.4807407 C110.786667,12.4807407 111.691481,14.1737037 111.712222,16.1777778 C111.766667,21.4562963 107.475926,27.9092593 102.373704,31.9666667 C102.306296,34.5022222 103.12037,35.6740741 104.608519,35.6740741 C107.281481,35.6740741 109.949259,32.9492593 112.243704,27.4633333 C112.557407,26.7140741 112.855556,25.8533333 113.184815,25.0262963 C113.643704,23.87 116.044444,24.5388889 115.702222,25.69 C114.965926,28.1451852 113.786296,31.3962963 113.786296,33.542963 C113.786296,34.9792593 114.50963,35.5781481 115.575185,35.5625926 C117.055556,35.5418519 118.268889,34.4788889 119.137407,33.4444444 C119.137407,33.4444444 119.746667,30.3903704 119.925556,29.5477778 C122.43,17.6555556 125.320741,12.4833333 129.113704,12.4833333 C131.37963,12.4833333 132.528148,13.8755556 132.528148,16.1233333 C132.528148,20.2481481 129.686667,24.9874074 124.221481,31.5337037 C126.136278,32.2279251 128.158061,32.5806841 130.194815,32.5759259 C130.334815,32.5759259 130.666667,32.5759259 130.801481,32.5733333 C130.735814,32.1025713 130.702033,31.6279097 130.70037,31.1525926 C130.70037,26.5274074 134.011111,23.2296296 138.094444,23.2296296 C140.764815,23.2296296 142.841481,24.4792593 142.841481,27.2248148 C142.841481,30.6625926 139.196296,33.3874074 134.602222,34.3362963 C135.317778,35.1866667 136.722963,35.7959259 138.688148,35.7959259 C143.098148,35.7959259 146.497037,33.6311111 148.75,31.5233333 L148.75,0 L92.7474074,0 L92.7474074,34.7225926 C95.2288056,33.7987773 97.575237,32.5466497 99.7240741,30.9996296 L99.7240741,30.9996296 Z M116.194815,18.2103704 C116.693159,18.2061724 117.171061,18.4082167 117.515261,18.7686206 C117.859462,19.1290245 118.039324,19.6157086 118.012222,20.1133333 C117.955249,21.1729404 117.084791,22.0059471 116.023704,22.0162963 C115.525359,22.0204935 115.047458,21.818449 114.703258,21.4580453 C114.359058,21.0976416 114.179195,20.6109579 114.206296,20.1133333 C114.265937,19.0549537 115.134837,18.2234387 116.194815,18.2103704 L116.194815,18.2103704 Z" id="Shape" fill="#BA0C2F"></path>
            <path d="M129.077407,14.7051852 C127.731852,14.7051852 125.00963,18.6044444 122.645185,29.8044444 C126.648148,24.7437037 129.894074,19.0166667 129.894074,16.0403704 C129.894074,15.2574074 129.665926,14.7051852 129.077407,14.7051852 Z" id="Path" fill="#BA0C2F"></path>
            <path d="M138.688148,38.1603704 C134.845926,38.1603704 132.681111,36.6696296 131.522222,34.7796296 C131.146296,34.7977778 130.70037,34.8081481 130.295926,34.8081481 C128.548335,34.8353908 126.806816,34.5958446 125.131481,34.0977778 C126.241084,36.5407359 126.824091,39.1898826 126.842593,41.872963 C126.82963,46.9077778 125.017407,50.2159259 121.561481,50.2159259 C119.098519,50.2159259 117.695926,48.4192593 117.646667,44.7092593 C117.61037,42.0051852 117.970741,39.7625926 118.504815,36.7266667 C117.541736,37.5158823 116.332892,37.9432882 115.087778,37.9348148 C112.547037,37.9451852 111.131481,36.3274074 111.03037,34.1003704 C109.052222,36.7655556 106.674815,38.0488889 104.193704,38.0488889 C101.48963,38.0488889 100.045556,36.3118519 99.7603704,33.7166667 C97.5600631,35.1338964 95.2087853,36.3017093 92.75,37.1985185 L92.75,56 L148.75,56 L148.75,34.5592593 C145.907488,36.8766159 142.355553,38.1478444 138.688148,38.1603704 L138.688148,38.1603704 Z" id="Path" fill="#BA0C2F"></path>
            <path d="M108.352222,14.7103704 C106.895185,14.7103704 104.323333,19.0659259 102.723704,28.6351852 C107.284074,24.1837037 109.142981,18.4255556 109.142981,16.1362963 C109.145556,15.0759259 108.862963,14.7103704 108.352222,14.7103704 Z" id="Path" fill="#BA0C2F"></path>
            <path d="M121.776667,34.0225926 C121.182963,36.7785185 120.368889,41.6318519 120.368889,44.7144444 C120.368889,46.5059259 120.757778,47.6414815 121.797407,47.6414815 C123.601852,47.6414815 124.138519,44.4655556 124.138519,42.1166667 C124.138519,39.0703704 123.35037,35.8633333 122.137037,33.6466667 L121.776667,34.0225926 Z" id="Path" fill="#BA0C2F"></path>
            <path d="M2.95814815,31.5285185 C2.95410925,32.1911185 3.02983909,32.851796 3.1837037,33.4962963 C3.31646272,34.0707862 3.55947572,34.6140435 3.89925926,35.0959259 C4.2304941,35.5530803 4.66836483,35.9224224 5.17481481,36.1718519 C5.76146867,36.4499814 6.40543183,36.5858798 7.05444444,36.5685185 C7.53753313,36.5762175 8.01801665,36.4962834 8.47259259,36.3325926 C8.84975243,36.197011 9.20856217,36.0149935 9.54074074,35.7907407 C9.88512693,35.5731684 10.1997427,35.3117149 10.4766667,35.012963 C10.6946602,35.2697601 10.8964106,35.5399151 11.0807407,35.8218519 C11.3013952,36.1127428 11.429646,36.4631743 11.4488889,36.8277778 C11.4423377,36.9331953 11.4150247,37.03628 11.3685185,37.1311111 C11.2372289,37.3721855 11.0570963,37.5832233 10.8396296,37.7507407 C10.3610299,38.1305033 9.81341886,38.4139932 9.22703704,38.5855556 C8.39888479,38.837019 7.53600696,38.9551615 6.67074074,38.9355556 C5.95228518,38.9267883 5.23721967,38.8354478 4.53962963,38.6633333 C3.74635829,38.4718793 3.00642635,38.1041287 2.37481481,37.5874074 C1.64808945,36.9802874 1.06988374,36.214963 0.684444444,35.35 C0.228148148,34.3933333 0,33.1290123 0,31.557037 C0,30.1 0.239382716,28.8996296 0.718148148,27.9559259 C1.13188503,27.0910951 1.73432487,26.3300718 2.48111111,25.7288889 C3.13997256,25.2066346 3.89612074,24.8206289 4.70555556,24.5933333 C5.38050547,24.394416 6.07875698,24.2854504 6.78222222,24.2692593 C7.45042032,24.2621921 8.1168264,24.3397217 8.76555556,24.5 C9.292889,24.6304958 9.80036499,24.8310447 10.2744444,25.0962963 C10.6112957,25.278637 10.9132324,25.5191331 11.1662963,25.8066667 C11.3498641,26.0120514 11.4553975,26.2754261 11.4644444,26.5507407 C11.4644444,27.0303704 11.1040741,27.7303704 10.652963,28.3292593 C10.240163,27.8882486 9.7607595,27.5146988 9.23222222,27.2222222 C8.59989232,26.8510516 7.87835775,26.6592399 7.14518519,26.6674074 C6.49156047,26.6493143 5.84193763,26.7749907 5.24222222,27.0355556 C4.73086832,27.2684351 4.28410521,27.6226417 3.94074074,28.0674074 C3.58916818,28.5300666 3.33515223,29.0592665 3.19407407,29.622963 C3.03229505,30.2450703 2.95297394,30.8857408 2.95814815,31.5285185 Z" id="Path" fill="#838271"></path>
            <path d="M25.7833333,38.1603704 C25.5315972,37.7762226 25.376801,37.3367438 25.3322222,36.8796296 C25.2284419,36.0403389 25.183394,35.1948258 25.1974074,34.3492593 L25.1974074,29.4648148 C25.2081307,28.6991198 25.1218898,27.9351467 24.9407407,27.1911111 C24.7915879,26.5736089 24.4831931,26.0059837 24.0462963,25.5448148 C23.5811542,25.082375 23.0082703,24.7429212 22.3792593,24.557037 C21.5420118,24.3167619 20.6729859,24.2057294 19.8022222,24.2277778 C19.1812333,24.2293147 18.5613598,24.2804651 17.9485185,24.3807407 C17.3649332,24.4712436 16.7905661,24.6135339 16.2322222,24.8059259 C15.7854748,24.9540819 15.3614349,25.1634843 14.9722222,25.4281481 C14.6982277,25.5815029 14.5170095,25.8596292 14.4874074,26.1722222 C14.5091562,26.446528 14.5729898,26.715853 14.6766667,26.9707407 C14.799093,27.3187091 14.9682995,27.6484002 15.1796296,27.9507407 C15.7650431,27.5390148 16.4000557,27.2027804 17.0696296,26.95 C17.8375585,26.6783604 18.6481969,26.5474989 19.4625926,26.5637037 C20.6007407,26.5637037 21.3707407,26.7806173 21.7725926,27.2144444 C22.1744444,27.65 22.3749383,28.2825926 22.3740741,29.1122222 L22.3740741,29.5788889 C22.1690132,29.5589046 21.963067,29.5493861 21.757037,29.5503704 L21.14,29.5503704 C20.3381539,29.578251 19.5388895,29.6570517 18.747037,29.7862963 C17.8966075,29.9168 17.0706798,30.1746292 16.297037,30.5511111 C15.550031,30.9104224 14.8934453,31.4332099 14.3759259,32.0807407 C13.8346292,32.7983964 13.5596744,33.6819178 13.5981481,34.58 L13.5981481,34.58 C13.5715091,35.296285 13.7173285,36.0084885 14.0233333,36.6566667 C14.2786469,37.1650512 14.6477065,37.6077454 15.1018519,37.9503704 C15.5354058,38.2711426 16.0319799,38.4964565 16.5588889,38.6114815 C17.0821372,38.730085 17.6168154,38.7909427 18.1533333,38.792963 C19.0606069,38.8307884 19.9642238,38.6568111 20.7925926,38.2848148 C21.4295962,37.9696173 22.0110301,37.5528062 22.5140741,37.0507407 C22.5386663,37.5523033 22.8171949,38.0067447 23.252963,38.2562963 C23.7095339,38.4909467 24.2175358,38.607698 24.7307407,38.5959259 C24.9013347,38.5966735 25.0718401,38.5880184 25.2414815,38.57 C25.3819243,38.5565476 25.5213507,38.5340316 25.6588889,38.5025926 C25.7603898,38.480964 25.8328606,38.3911868 25.8325933,38.2874074 C25.8255664,38.2419941 25.8087591,38.1986491 25.7833333,38.1603704 L25.7833333,38.1603704 Z M22.4077778,34.4503704 C22.3936042,34.7151 22.2903623,34.9672661 22.1148148,35.1659259 C21.8921139,35.4391151 21.6236856,35.6715775 21.3214815,35.852963 C20.9599305,36.0756661 20.5724824,36.2532828 20.1677778,36.3818519 C19.7232419,36.5262907 19.2585201,36.5989308 18.7911111,36.5970731 C17.8811111,36.5970731 17.2614815,36.3766667 16.927037,35.9385185 C16.5940907,35.5028058 16.4178026,34.9675477 16.4266667,34.4192593 C16.4007947,33.8867039 16.5683839,33.3627574 16.8985185,32.9440741 C17.230821,32.5593249 17.6504206,32.259738 18.1222222,32.0703704 C18.6567298,31.8520315 19.2183999,31.7072532 19.7918519,31.64 C20.3913051,31.5651334 20.9947797,31.5270375 21.5988889,31.5259259 L22.4051852,31.5259259 L22.4051852,34.4503704 L22.4077778,34.4503704 Z" id="Shape" fill="#838271"></path>
            <path d="M40.8877778,38.5 L37.997037,38.5 L37.997037,30.5511111 C37.997037,30.0040741 37.9780247,29.4941975 37.94,29.0214815 C37.9140993,28.6012777 37.8094427,28.1896869 37.6314815,27.8081481 C37.4555144,27.4642328 37.1699881,27.1887409 36.82,27.0251852 C36.326646,26.8152399 35.7922192,26.7195217 35.2566667,26.7451852 C34.4037684,26.7119635 33.5599139,26.9301395 32.83,27.3725926 C32.1559259,27.8107407 31.8188889,28.3811111 31.8188889,29.0292593 L31.8188889,38.5025926 L28.9177778,38.5025926 L28.9177778,24.5233333 C28.9592593,24.5181481 29.0111111,24.512963 29.0681481,24.5077778 C29.1174074,24.5025926 29.177037,24.5 29.2444444,24.4974074 C29.3118519,24.4948148 29.3922222,24.4948148 29.4855556,24.4948148 C29.9712061,24.4882137 30.4498876,24.610792 30.8725926,24.85 C31.3028784,25.113344 31.5820691,25.5658255 31.6244444,26.0685185 C32.1559179,25.5362801 32.7796136,25.1049637 33.4651852,24.7955556 C34.3289625,24.4035622 35.2702461,24.2121146 36.2185185,24.2355556 C37.5562963,24.2355556 38.5795062,24.5345679 39.2881481,25.1325926 C39.9828332,25.7076426 40.4700195,26.4944258 40.6751852,27.3725926 C40.7791129,27.8087612 40.8381853,28.2544105 40.8514815,28.7025926 C40.8696296,29.19 40.88,29.6644444 40.88,30.1207407 L40.88,38.5 L40.8877778,38.5 Z" id="Path" fill="#838271"></path>
            <path d="M55.9248148,38.1603704 C55.6730765,37.7762237 55.5182801,37.3367443 55.4737037,36.8796296 C55.3699236,36.0403389 55.3248758,35.1948258 55.3388889,34.3492593 L55.3388889,29.4648148 C55.3496121,28.6991198 55.2633711,27.9351467 55.0822222,27.1911111 C54.9330702,26.5736086 54.6246753,26.0059832 54.1877778,25.5448148 C53.7226344,25.0823765 53.149751,24.742923 52.5207407,24.557037 C51.6834932,24.3167619 50.8144674,24.2057295 49.9437037,24.2277778 C49.3227148,24.2293147 48.7028413,24.2804651 48.09,24.3807407 C47.5064146,24.4712432 46.9320475,24.6135335 46.3737037,24.8059259 C45.9269564,24.9540822 45.5029165,25.1634846 45.1137037,25.4281481 C44.8397089,25.5815025 44.6584905,25.8596291 44.6288889,26.1722222 C44.6506342,26.4465285 44.7144678,26.7158541 44.8181481,26.9707407 C44.9405734,27.3187096 45.10978,27.6484008 45.3211111,27.9507407 C45.906524,27.5390139 46.5415368,27.2027795 47.2111111,26.95 C47.9790402,26.6783611 48.7896785,26.5474996 49.6040741,26.5637037 C50.7422222,26.5637037 51.5122222,26.7806173 51.9140741,27.2144444 C52.3159259,27.65 52.5164198,28.2825926 52.5155556,29.1122222 L52.5155556,29.5788889 C52.3104947,29.5589046 52.1045485,29.5493861 51.8985185,29.5503704 L51.2814815,29.5503704 C50.4796354,29.578251 49.680371,29.6570518 48.8885185,29.7862963 C48.0380891,29.9168006 47.2121615,30.1746298 46.4385185,30.5511111 C45.6911762,30.9110524 45.0338744,31.4337049 44.5148148,32.0807407 C43.9735181,32.7983964 43.6985633,33.6819178 43.737037,34.58 L43.737037,34.58 C43.710394,35.2962853 43.8562137,36.0084898 44.1622222,36.6566667 C44.4175375,37.1650501 44.7865968,37.6077439 45.2407407,37.9503704 C45.6742944,38.2711431 46.1708686,38.496457 46.6977778,38.6114815 C47.2210261,38.730085 47.7557042,38.7909427 48.2922222,38.792963 C49.1994958,38.8307878 50.1031125,38.6568105 50.9314815,38.2848148 C51.5684832,37.9696142 52.1499166,37.5528035 52.652963,37.0507407 C52.6775552,37.5523033 52.9560838,38.0067447 53.3918519,38.2562963 C53.848423,38.4909463 54.3564248,38.6076976 54.8696296,38.5959259 C55.0402236,38.5966735 55.210729,38.5880184 55.3803704,38.57 C55.5208133,38.5565488 55.6602399,38.5340327 55.7977778,38.5025926 C55.8992781,38.4809631 55.9717484,38.3911864 55.9714822,38.2874074 C55.9689433,38.2413553 55.9526916,38.1971144 55.9248148,38.1603704 L55.9248148,38.1603704 Z M52.5492593,34.4503704 C52.5350857,34.7151 52.4318438,34.9672661 52.2562963,35.1659259 C52.0335966,35.4391163 51.7651681,35.6715788 51.462963,35.852963 C51.1014119,36.0756659 50.7139638,36.2532826 50.3092593,36.3818519 C49.8647233,36.5262903 49.4000015,36.5989304 48.9325926,36.5970731 C48.0225926,36.5970731 47.402963,36.3766667 47.0685185,35.9385185 C46.7355705,35.5028067 46.5592823,34.967548 46.5681481,34.4192593 C46.5422747,33.8867037 46.7098641,33.3627567 47.04,32.9440741 C47.3723036,32.559326 47.7919028,32.2597393 48.2637037,32.0703704 C48.7982112,31.8520314 49.3598814,31.7072531 49.9333333,31.64 C50.5327866,31.5651333 51.1362611,31.5270373 51.7403704,31.5259259 L52.5466667,31.5259259 L52.5466667,34.4503704 L52.5492593,34.4503704 Z" id="Shape" fill="#838271"></path>
            <path d="M71.4103704,38.1603704 C71.158632,37.7762237 71.0038357,37.3367443 70.9592593,36.8796296 C70.8554791,36.0403389 70.8104313,35.1948258 70.8244444,34.3492593 L70.8244444,19.9551852 C70.838093,19.5402891 70.7793119,19.1261896 70.6507407,18.7314815 C70.5548593,18.4503514 70.39203,18.1967649 70.1762963,17.9925926 C69.9834298,17.8157969 69.7488061,17.6909022 69.4944444,17.6296296 C69.2490049,17.5707087 68.9975943,17.540261 68.7451852,17.5388889 C68.6181481,17.5388889 68.472963,17.5414815 68.3122222,17.5492593 C68.1899108,17.5514698 68.0678411,17.560993 67.9466667,17.5777778 L67.9466667,25.6537037 C67.523506,25.2873375 67.0470665,24.9874866 66.5337037,24.7644444 C65.7659845,24.4375309 64.9357442,24.2835204 64.1018519,24.3133333 C63.359809,24.3123994 62.62523,24.4614317 61.9422222,24.7514815 C61.2385648,25.0492675 60.61244,25.5042278 60.1118519,26.0814815 C59.5441718,26.7563645 59.1159168,27.5370926 58.8518519,28.3785185 C58.5167277,29.4573675 58.3574068,30.583118 58.38,31.7125926 C58.3500892,32.8670683 58.5130689,34.018441 58.8622222,35.1192593 C59.1273419,35.93853 59.5699616,36.689213 60.1585185,37.3177778 C60.6756049,37.8518674 61.3116851,38.2560804 62.0148148,38.4974074 C62.7093582,38.7337932 63.4381848,38.8538043 64.1718519,38.8525926 C65.0615777,38.8880794 65.9437316,38.6762906 66.7203704,38.2407407 C67.2636747,37.9389009 67.744174,37.5358448 68.1359259,37.0533333 C68.1605181,37.5548959 68.4390467,38.0093373 68.8748148,38.2588889 C69.3313859,38.4935389 69.8393877,38.6102901 70.3525926,38.5985185 C70.5231865,38.5992661 70.693692,38.590611 70.8633333,38.5725926 C71.0037761,38.5591401 71.1432026,38.536624 71.2807407,38.5051852 C71.3822411,38.4835557 71.4547114,38.393779 71.4544452,38.29 C71.4544452,38.2431006 71.4390172,38.1975042 71.4103704,38.1603704 Z M67.9466667,34.6992593 C67.9418584,34.9432684 67.8652052,35.1804425 67.7262963,35.3811111 C67.5622542,35.6243228 67.3461732,35.8280057 67.0937037,35.9774074 C66.788358,36.1621622 66.4596298,36.3051633 66.1162963,36.4025926 C65.7190855,36.5197576 65.3067064,36.5774207 64.8925926,36.5737037 C64.3137509,36.5937522 63.7397936,36.4614381 63.2281481,36.19 C62.7773898,35.9324297 62.4026545,35.5603774 62.1418519,35.1114815 C61.8526744,34.6061462 61.6568349,34.0528776 61.5637037,33.4781481 C61.4497254,32.8023301 61.3942113,32.1179453 61.3977778,31.4325926 C61.3977778,29.8407407 61.7002469,28.6377778 62.3051852,27.8237037 C62.8737519,27.0275182 63.8033305,26.5690558 64.7811111,26.6025926 C65.1806326,26.5970269 65.57885,26.649424 65.9633333,26.7581481 C66.2842556,26.851453 66.593811,26.9801446 66.8862963,27.1418519 C67.1249613,27.2758825 67.3468825,27.4377545 67.5474074,27.6240741 C67.7081481,27.7822222 67.8403704,27.9144444 67.9466667,28.0233333 L67.9466667,34.6992593 L67.9466667,34.6992593 Z" id="Shape" fill="#838271"></path>
            <path d="M85.9677778,38.1603704 C85.7160372,37.7762248 85.5612406,37.3367448 85.5166667,36.8796296 C85.4128852,36.040339 85.3678374,35.1948259 85.3818519,34.3492593 L85.3818519,29.4648148 C85.3925737,28.6991198 85.3063328,27.9351469 85.1251852,27.1911111 C84.9760331,26.5736086 84.6676382,26.0059832 84.2307407,25.5448148 C83.7655981,25.0823757 83.1927144,24.742922 82.5637037,24.557037 C81.7264562,24.3167617 80.8574304,24.2057292 79.9866667,24.2277778 C79.3656777,24.2293146 78.7458042,24.280465 78.132963,24.3807407 C77.5493775,24.471243 76.9750104,24.6135333 76.4166667,24.8059259 C75.9699193,24.9540819 75.5458794,25.1634843 75.1566667,25.4281481 C74.8826721,25.5815029 74.7014539,25.8596292 74.6718519,26.1722222 C74.6935971,26.4465285 74.7574308,26.7158541 74.8611111,26.9707407 C74.9835374,27.3187091 75.152744,27.6484002 75.3640741,27.9507407 C75.9494873,27.5390145 76.5845,27.20278 77.2540741,26.95 C78.0220032,26.6783613 78.8326414,26.5474998 79.647037,26.5637037 C80.7851852,26.5637037 81.5551852,26.7806173 81.957037,27.2144444 C82.3588889,27.65 82.5593827,28.2825926 82.5585185,29.1122222 L82.5585185,29.5788889 C82.3534577,29.5589046 82.1475115,29.5493861 81.9414815,29.5503704 L81.3244444,29.5503704 C80.5225984,29.5782513 79.723334,29.657052 78.9314815,29.7862963 C78.0810521,29.916801 77.2551246,30.1746302 76.4814815,30.5511111 C75.734475,30.9104216 75.0778891,31.4332093 74.5603704,32.0807407 C74.0190736,32.7983964 73.7441188,33.6819178 73.7825926,34.58 L73.7825926,34.58 C73.7559509,35.2962852 73.9017705,36.0084894 74.2077778,36.6566667 C74.4630932,37.16505 74.8321525,37.6077437 75.2862963,37.9503704 C75.7198498,38.2711434 76.216424,38.4964573 76.7433333,38.6114815 C77.2665817,38.7300847 77.8012598,38.7909424 78.3377778,38.792963 C79.2450513,38.8307873 80.1486679,38.6568101 80.977037,38.2848148 C81.6140389,37.9696144 82.1954723,37.5528037 82.6985185,37.0507407 C82.7231107,37.5523033 83.0016393,38.0067447 83.4374074,38.2562963 C83.8939784,38.4909467 84.4019803,38.607698 84.9151852,38.5959259 C85.0857791,38.5966736 85.2562846,38.5880185 85.4259259,38.57 C85.5663689,38.5565486 85.7057954,38.5340326 85.8433333,38.5025926 C85.9448337,38.4809631 86.017304,38.3911864 86.0170378,38.2874074 C86.0123538,38.2413992 85.9953352,38.197509 85.9677778,38.1603704 Z M82.5948148,34.4503704 C82.5806409,34.7150999 82.477399,34.9672659 82.3018519,35.1659259 C82.0791521,35.4391163 81.8107237,35.6715788 81.5085185,35.852963 C81.146968,36.0756669 80.7595197,36.2532836 80.3548148,36.3818519 C79.9102788,36.5262903 79.4455571,36.5989304 78.9781481,36.5970731 C78.0681481,36.5970731 77.4485185,36.3766667 77.1140741,35.9385185 C76.7811261,35.5028067 76.6048378,34.967548 76.6137037,34.4192593 C76.5878291,33.8867036 76.7554186,33.3627561 77.0855556,32.9440741 C77.4178591,32.559326 77.8374583,32.2597393 78.3092593,32.0703704 C78.8437666,31.8520309 79.4054368,31.7072525 79.9788889,31.64 C80.5783421,31.5651334 81.1818167,31.5270374 81.7859259,31.5259259 L82.5922222,31.5259259 L82.5922222,34.4503704 L82.5948148,34.4503704 Z" id="Shape" fill="#838271"></path>
            <path d="M116.026296,22.0162963 C117.087383,22.0059471 117.957841,21.1729404 118.014815,20.1133333 C118.041463,19.6158271 117.861449,19.1294048 117.517348,18.7691042 C117.173246,18.4088036 116.695613,18.2066204 116.197407,18.2103704 C115.13632,18.2207195 114.265862,19.0537263 114.208889,20.1133333 C114.181788,20.6109579 114.36165,21.0976416 114.705851,21.4580453 C115.050051,21.818449 115.527952,22.0204935 116.026296,22.0162963 Z" id="Path" fill="#FFFFFF"></path>
            <path d="M138.685556,35.7855556 C136.72037,35.7855556 135.315185,35.1762963 134.59963,34.3259259 C139.196296,33.377037 142.838889,30.6522222 142.838889,27.2144444 C142.838889,24.4688889 140.762222,23.2192593 138.091852,23.2192593 C134.008519,23.2192593 130.697778,26.517037 130.697778,31.1422222 C130.69934,31.6175431 130.733121,32.0922114 130.798889,32.562963 C130.661481,32.5655556 130.332222,32.5655556 130.192222,32.5655556 C128.155469,32.5703124 126.133686,32.2175534 124.218889,31.5233333 C129.684074,24.977037 132.525556,20.2403704 132.525556,16.112963 C132.525556,13.8625926 131.374444,12.472963 129.111111,12.472963 C125.320741,12.472963 122.427407,17.6425926 119.922963,29.5374074 C119.744074,30.3825926 119.134815,33.4340741 119.134815,33.4340741 C118.268889,34.4685185 117.055556,35.5314815 115.572593,35.5522222 C114.507037,35.5677778 113.783704,34.9714815 113.783704,33.5325926 C113.783704,31.3859259 114.963333,28.1348148 115.69963,25.6796296 C116.044444,24.5311111 113.641111,23.8622222 113.182222,25.0159259 C112.852963,25.8455556 112.554815,26.7062963 112.241111,27.452963 C109.944074,32.9388889 107.278889,35.6637037 104.605926,35.6637037 C103.117778,35.6637037 102.303704,34.4944444 102.371111,31.9562963 C107.475926,27.8988889 111.764074,21.4459259 111.70963,16.1674074 C111.688889,14.1633333 110.784074,12.4703704 108.344444,12.4703704 C104.839259,12.4703704 102.355556,17.3211111 100.888148,23.6885185 C100.313678,26.088792 99.9236512,28.5294917 99.7214815,30.9892593 C97.5724741,32.5366806 95.2261065,33.7896462 92.7448148,34.7148148 L92.7448148,37.1881481 C95.2031411,36.2902695 97.5543032,35.122514 99.7551852,33.7062963 C100.04037,36.3014815 101.484444,38.0385185 104.188519,38.0385185 C106.66963,38.0385185 109.04963,36.7551852 111.025185,34.09 C111.126296,36.3196296 112.541852,37.9348148 115.082593,37.9244444 C116.327912,37.9341368 117.537158,37.5065886 118.49963,36.7162963 C117.965556,39.7548148 117.605185,41.9948148 117.641481,44.6988889 C117.690741,48.4062963 119.093333,50.2055556 121.556296,50.2055556 C125.014815,50.2055556 126.827037,46.8974074 126.837407,41.8625926 C126.819182,39.1794813 126.236163,36.5302778 125.126296,34.0874074 C126.801671,34.5852866 128.543161,34.8248289 130.290741,34.7977778 C130.695185,34.7977778 131.138519,34.7874074 131.517037,34.7692593 C132.673333,36.6592593 134.840741,38.15 138.682963,38.15 C142.349653,38.1378818 145.900901,36.8665716 148.742222,34.5488889 L148.742222,31.5 C146.491852,33.6181481 143.095556,35.7855556 138.685556,35.7855556 Z M108.352222,14.7103704 C108.862963,14.7103704 109.142963,15.0759259 109.142963,16.1388889 C109.142963,18.4281481 107.284074,24.1862963 102.723704,28.6377778 C104.325926,19.0633333 106.895185,14.7103704 108.352222,14.7103704 L108.352222,14.7103704 Z M129.077407,14.7051852 C129.665926,14.7051852 129.894074,15.2548148 129.894074,16.042963 C129.894074,19.0192593 126.648148,24.7437037 122.645185,29.807037 C125.00963,18.607037 127.731852,14.7051852 129.077407,14.7051852 L129.077407,14.7051852 Z M121.8,47.6414815 C120.76037,47.6414815 120.371481,46.5033333 120.371481,44.7144444 C120.371481,41.6344444 121.185556,36.7811111 121.779259,34.0225926 L122.142222,33.6466667 C123.355556,35.8633333 124.143704,39.0703704 124.143704,42.1166667 C124.141111,44.4655556 123.601852,47.6414815 121.8,47.6414815 Z M133.544444,31.1240741 C133.544444,28.2825926 135.291852,25.4488889 138.135926,25.4488889 C139.354444,25.4488889 140.082963,26.1151852 140.082963,27.2662963 C140.082963,29.0914815 137.975185,31.3937037 133.655926,32.2259259 C133.581591,31.8633583 133.544239,31.4941834 133.544444,31.1240741 L133.544444,31.1240741 Z" id="Shape" fill="#FFFFFF"></path>
            <polygon id="Path" fill="#838271" points="161.132222 0.191851852 159.382222 4.89740741 157.632222 0.191851852 156.582222 0.191851852 156.582222 5.79185185 157.282222 5.79185185 157.282222 1.12518519 157.321111 1.12518519 159.032222 5.79185185 159.732222 5.79185185 161.443333 1.12518519 161.482222 1.12518519 161.482222 5.79185185 162.182222 5.79185185 162.182222 0.191851852"></polygon>
            <polygon id="Path" fill="#838271" points="151.448889 0.814074074 153.354444 0.814074074 153.354444 5.79185185 154.054444 5.79185185 154.054444 0.814074074 155.96 0.814074074 155.96 0.191851852 151.448889 0.191851852"></polygon>
        </g>
    </g>
</svg>