<?xml version="1.0" encoding="utf-8"?>
<!-- Generator: Adobe Illustrator 21.1.0, SVG Export Plug-In . SVG Version: 6.00 Build 0)  -->
<svg version="1.1" id="Layer_1" xmlns="http://www.w3.org/2000/svg" xmlns:xlink="http://www.w3.org/1999/xlink" x="0px" y="0px"
	 viewBox="0 0 15.4 20" style="enable-background:new 0 0 15.4 20;" xml:space="preserve">
<style type="text/css">
	.st0{fill:#4F4F4F;}
</style>
<g>
	<g>
		<path class="st0" d="M12.4,20H3c-1.7,0-3-1.3-3-3V3c0-1.7,1.3-3,3-3h6.3c0.1,0,0.3,0.1,0.4,0.1l5.6,5.8c0,0.2,0.1,0.3,0.1,0.4V17
			C15.4,18.7,14,20,12.4,20z M3,1C1.9,1,1,1.9,1,3v14c0,1.1,0.9,2,2,2h9.5c1.1,0,2-0.9,2-2V6.5L9.1,1H3z"/>
	</g>
	<g>
		<g>
			<path class="st0" d="M9.2,5H3.8C3.5,5,3.3,4.8,3.3,4.5S3.5,4,3.8,4h5.4c0.3,0,0.5,0.2,0.5,0.5S9.5,5,9.2,5z"/>
		</g>
		<g>
			<path class="st0" d="M11.6,8.9H3.8c-0.3,0-0.5-0.2-0.5-0.5s0.2-0.5,0.5-0.5h7.9c0.3,0,0.5,0.2,0.5,0.5S11.9,8.9,11.6,8.9z"/>
		</g>
		<g>
			<path class="st0" d="M11.6,11.3H3.8c-0.3,0-0.5-0.2-0.5-0.5s0.2-0.5,0.5-0.5h7.9c0.3,0,0.5,0.2,0.5,0.5S11.9,11.3,11.6,11.3z"/>
		</g>
		<g>
			<path class="st0" d="M11.6,13.6H3.8c-0.3,0-0.5-0.2-0.5-0.5s0.2-0.5,0.5-0.5h7.9c0.3,0,0.5,0.2,0.5,0.5S11.9,13.6,11.6,13.6z"/>
		</g>
		<g>
			<path class="st0" d="M11.6,16H3.8c-0.3,0-0.5-0.2-0.5-0.5S3.5,15,3.8,15h7.9c0.3,0,0.5,0.2,0.5,0.5S11.9,16,11.6,16z"/>
		</g>
	</g>
</g>
</svg>
