<?xml version="1.0" encoding="utf-8"?>
<!-- Generator: Adobe Illustrator 21.1.0, SVG Export Plug-In . SVG Version: 6.00 Build 0)  -->
<svg version="1.1" id="Layer_1" xmlns="http://www.w3.org/2000/svg" xmlns:xlink="http://www.w3.org/1999/xlink" x="0px" y="0px"
	 viewBox="0 0 15.4 20" style="enable-background:new 0 0 15.4 20;" xml:space="preserve">
<style type="text/css">
	.st0{fill:#4F4F4F;}
</style>
<title>PDF</title>
<g>
	<path class="st0" d="M8.9,0.9l5.5,5.7v10.5c0,1.1-0.8,1.9-1.9,2H2.8c-1.1,0-1.9-0.9-1.9-2V2.9c0-1.1,0.8-1.9,1.9-2L8.9,0.9 M8.9,0
		H2.8C1.2,0,0,1.3,0,2.9v14.3C0,18.7,1.2,20,2.8,20h9.8c1.6,0,2.8-1.3,2.8-2.9V6.6c0-0.2-0.1-0.5-0.3-0.6L9.6,0.3
		C9.4,0.1,9.2,0,8.9,0L8.9,0L8.9,0z"/>
	<path class="st0" d="M3.2,15.5c-0.3,0-0.5-0.1-0.7-0.3s-0.3-0.5-0.3-0.9c0.2-0.8,0.7-1.5,1.5-1.9c0.6-0.3,1.2-0.6,1.8-0.8
		c0.4-0.9,0.9-1.9,1.3-2.9C6.4,8.2,6.1,7.6,6,7C5.8,6.3,5.8,5.5,6.2,4.9C6.4,4.6,6.7,4.5,7,4.5s0.7,0.1,0.9,0.4
		C8.3,5.5,8.4,6.3,8.2,7C8.1,7.5,7.9,8,7.7,8.6c0.5,0.8,1.1,1.6,1.8,2.2c0.6,0,1.2,0,1.8,0.1c0.7,0.1,1.4,0.5,1.8,1.2
		c0.3,0.5,0.1,1.2-0.4,1.4c-0.1,0.1-0.2,0.1-0.3,0.1c-0.7,0.1-1.5-0.2-2-0.7c0,0-0.5-0.5-1.2-1.1c-1,0.1-2.1,0.3-3.1,0.6
		C5.8,13,5.5,13.6,5.2,14l0,0C4.8,14.7,4.1,15.3,3.2,15.5L3.2,15.5L3.2,15.5z M4.8,12.9c-0.3,0.1-0.5,0.2-0.7,0.4
		c-0.5,0.2-0.9,0.7-1,1.2v0.1h0.1c0.5-0.2,0.9-0.5,1.2-1l0,0C4.5,13.4,4.7,13.1,4.8,12.9L4.8,12.9z M10.4,11.8
		c0.2,0.2,0.4,0.3,0.5,0.5c0.3,0.3,0.8,0.5,1.2,0.5c0.1,0,0.1-0.1,0.2-0.1v-0.1c-0.3-0.4-0.7-0.6-1.2-0.7
		C10.9,11.8,10.7,11.8,10.4,11.8L10.4,11.8z M7.3,9.7c-0.2,0.5-0.5,1.1-0.7,1.6c0.6-0.1,1.2-0.2,1.8-0.3C8,10.6,7.6,10.2,7.3,9.7
		L7.3,9.7z M7.1,5.4L7.1,5.4C7,5.4,7,5.4,7.1,5.4c-0.3,0.5-0.4,1-0.2,1.4c0,0.3,0.1,0.5,0.2,0.8c0.1-0.2,0.1-0.5,0.2-0.7
		C7.5,6.5,7.4,6,7.1,5.4C7.2,5.4,7.2,5.4,7.1,5.4L7.1,5.4z"/>
</g>
</svg>
